<svg width="51" height="51" viewBox="0 0 51 51" fill="none" xmlns="http://www.w3.org/2000/svg">
<path d="M25.5 3.1875C26.909 3.1875 28.2602 3.74721 29.2565 4.7435C30.2528 5.73978 30.8125 7.09104 30.8125 8.5C30.8125 9.90896 30.2528 11.2602 29.2565 12.2565C28.2602 13.2528 26.909 13.8125 25.5 13.8125C24.0911 13.8125 22.7398 13.2528 21.7435 12.2565C20.7472 11.2602 20.1875 9.90896 20.1875 8.5C20.1875 7.09104 20.7472 5.73978 21.7435 4.7435C22.7398 3.74721 24.0911 3.1875 25.5 3.1875ZM33.7238 10.625C38.25 10.625 42.5 14.875 42.5 19.125C48.2375 19.125 48.2375 27.625 42.5 27.625H8.50002C2.76252 27.625 2.76252 19.125 8.50002 19.125C8.50002 14.875 12.75 10.625 17.2763 10.625C18.2113 14.3013 21.5475 17 25.5 17C29.4525 17 32.7888 14.3013 33.7238 10.625ZM10.625 31.875H17L19.125 46.75H14.875L10.625 31.875ZM21.25 31.875H29.75L27.625 46.75H23.375L21.25 31.875ZM34 31.875H40.375L36.125 46.75H31.875L34 31.875Z" fill="white"/>
</svg>
